  0
SECTION
  2
BLOCKS
  0
ENDSEC
  0
SECTION
  2
ENTITIES
  0
LINE
  8
0
 10
2.54
 11
2.54
 20
2.032
 21
15.875
  0
LINE
  8
0
 10
2.54
 11
4.073
 20
15.875
 21
15.875
  0
LINE
  8
0
 10
4.073
 11
4.073
 20
15.875
 21
2.032
  0
LINE
  8
0
 10
4.073
 11
2.54
 20
2.032
 21
2.032
  0
LINE
  8
0
 10
2.54
 11
2.54
 20
19.685
 21
33.552
  0
LINE
  8
0
 10
2.54
 11
4.572
 20
33.552
 21
33.552
  0
LINE
  8
0
 10
4.572
 11
4.572
 20
33.552
 21
19.685
  0
LINE
  8
0
 10
4.572
 11
2.54
 20
19.685
 21
19.685
  0
LINE
  8
0
 10
5.08
 11
5.08
 20
2.032
 21
15.875
  0
LINE
  8
0
 10
5.08
 11
6.647
 20
15.875
 21
15.875
  0
LINE
  8
0
 10
6.647
 11
6.647
 20
15.875
 21
2.032
  0
LINE
  8
0
 10
6.647
 11
5.08
 20
2.032
 21
2.032
  0
LINE
  8
0
 10
5.08
 11
5.08
 20
19.685
 21
33.586
  0
LINE
  8
0
 10
5.08
 11
7.112
 20
33.586
 21
33.586
  0
LINE
  8
0
 10
7.112
 11
7.112
 20
33.586
 21
19.685
  0
LINE
  8
0
 10
7.112
 11
5.08
 20
19.685
 21
19.685
  0
LINE
  8
0
 10
7.62
 11
7.62
 20
2.032
 21
15.875
  0
LINE
  8
0
 10
7.62
 11
9.22
 20
15.875
 21
15.875
  0
LINE
  8
0
 10
9.22
 11
9.22
 20
15.875
 21
2.032
  0
LINE
  8
0
 10
9.22
 11
7.62
 20
2.032
 21
2.032
  0
LINE
  8
0
 10
7.62
 11
7.62
 20
19.685
 21
33.619
  0
LINE
  8
0
 10
7.62
 11
9.652
 20
33.619
 21
33.619
  0
LINE
  8
0
 10
9.652
 11
9.652
 20
33.619
 21
19.685
  0
LINE
  8
0
 10
9.652
 11
7.62
 20
19.685
 21
19.685
  0
LINE
  8
0
 10
10.16
 11
10.16
 20
2.032
 21
15.875
  0
LINE
  8
0
 10
10.16
 11
11.793
 20
15.875
 21
15.875
  0
LINE
  8
0
 10
11.793
 11
11.793
 20
15.875
 21
2.032
  0
LINE
  8
0
 10
11.793
 11
10.16
 20
2.032
 21
2.032
  0
LINE
  8
0
 10
10.16
 11
10.16
 20
19.685
 21
33.652
  0
LINE
  8
0
 10
10.16
 11
12.192
 20
33.652
 21
33.652
  0
LINE
  8
0
 10
12.192
 11
12.192
 20
33.652
 21
19.685
  0
LINE
  8
0
 10
12.192
 11
10.16
 20
19.685
 21
19.685
  0
LINE
  8
0
 10
12.7
 11
12.7
 20
2.032
 21
15.875
  0
LINE
  8
0
 10
12.7
 11
14.367
 20
15.875
 21
15.875
  0
LINE
  8
0
 10
14.367
 11
14.367
 20
15.875
 21
2.032
  0
LINE
  8
0
 10
14.367
 11
12.7
 20
2.032
 21
2.032
  0
LINE
  8
0
 10
12.7
 11
12.7
 20
19.685
 21
33.686
  0
LINE
  8
0
 10
12.7
 11
14.732
 20
33.686
 21
33.686
  0
LINE
  8
0
 10
14.732
 11
14.732
 20
33.686
 21
19.685
  0
LINE
  8
0
 10
14.732
 11
12.7
 20
19.685
 21
19.685
  0
LINE
  8
0
 10
15.24
 11
15.24
 20
2.032
 21
15.875
  0
LINE
  8
0
 10
15.24
 11
16.94
 20
15.875
 21
15.875
  0
LINE
  8
0
 10
16.94
 11
16.94
 20
15.875
 21
2.032
  0
LINE
  8
0
 10
16.94
 11
15.24
 20
2.032
 21
2.032
  0
LINE
  8
0
 10
15.24
 11
15.24
 20
19.685
 21
33.719
  0
LINE
  8
0
 10
15.24
 11
17.272
 20
33.719
 21
33.719
  0
LINE
  8
0
 10
17.272
 11
17.272
 20
33.719
 21
19.685
  0
LINE
  8
0
 10
17.272
 11
15.24
 20
19.685
 21
19.685
  0
LINE
  8
0
 10
17.78
 11
17.78
 20
2.032
 21
15.875
  0
LINE
  8
0
 10
17.78
 11
19.513
 20
15.875
 21
15.875
  0
LINE
  8
0
 10
19.513
 11
19.513
 20
15.875
 21
2.032
  0
LINE
  8
0
 10
19.513
 11
17.78
 20
2.032
 21
2.032
  0
LINE
  8
0
 10
17.78
 11
17.78
 20
19.685
 21
33.752
  0
LINE
  8
0
 10
17.78
 11
19.812
 20
33.752
 21
33.752
  0
LINE
  8
0
 10
19.812
 11
19.812
 20
33.752
 21
19.685
  0
LINE
  8
0
 10
19.812
 11
17.78
 20
19.685
 21
19.685
  0
LINE
  8
0
 10
20.32
 11
20.32
 20
2.032
 21
15.875
  0
LINE
  8
0
 10
20.32
 11
22.087
 20
15.875
 21
15.875
  0
LINE
  8
0
 10
22.087
 11
22.087
 20
15.875
 21
2.032
  0
LINE
  8
0
 10
22.087
 11
20.32
 20
2.032
 21
2.032
  0
LINE
  8
0
 10
20.32
 11
20.32
 20
19.685
 21
33.786
  0
LINE
  8
0
 10
20.32
 11
22.352
 20
33.786
 21
33.786
  0
LINE
  8
0
 10
22.352
 11
22.352
 20
33.786
 21
19.685
  0
LINE
  8
0
 10
22.352
 11
20.32
 20
19.685
 21
19.685
  0
LINE
  8
0
 10
22.86
 11
22.86
 20
2.032
 21
15.875
  0
LINE
  8
0
 10
22.86
 11
24.66
 20
15.875
 21
15.875
  0
LINE
  8
0
 10
24.66
 11
24.66
 20
15.875
 21
2.032
  0
LINE
  8
0
 10
24.66
 11
22.86
 20
2.032
 21
2.032
  0
LINE
  8
0
 10
22.86
 11
22.86
 20
19.685
 21
33.819
  0
LINE
  8
0
 10
22.86
 11
24.892
 20
33.819
 21
33.819
  0
LINE
  8
0
 10
24.892
 11
24.892
 20
33.819
 21
19.685
  0
LINE
  8
0
 10
24.892
 11
22.86
 20
19.685
 21
19.685
  0
LINE
  8
0
 10
25.4
 11
25.4
 20
2.032
 21
15.875
  0
LINE
  8
0
 10
25.4
 11
27.233
 20
15.875
 21
15.875
  0
LINE
  8
0
 10
27.233
 11
27.233
 20
15.875
 21
2.032
  0
LINE
  8
0
 10
27.233
 11
25.4
 20
2.032
 21
2.032
  0
LINE
  8
0
 10
25.4
 11
25.4
 20
19.685
 21
33.852
  0
LINE
  8
0
 10
25.4
 11
27.432
 20
33.852
 21
33.852
  0
LINE
  8
0
 10
27.432
 11
27.432
 20
33.852
 21
19.685
  0
LINE
  8
0
 10
27.432
 11
25.4
 20
19.685
 21
19.685
  0
LINE
  8
0
 10
27.94
 11
27.94
 20
2.032
 21
15.875
  0
LINE
  8
0
 10
27.94
 11
29.807
 20
15.875
 21
15.875
  0
LINE
  8
0
 10
29.807
 11
29.807
 20
15.875
 21
2.032
  0
LINE
  8
0
 10
29.807
 11
27.94
 20
2.032
 21
2.032
  0
LINE
  8
0
 10
27.94
 11
27.94
 20
19.685
 21
33.886
  0
LINE
  8
0
 10
27.94
 11
29.972
 20
33.886
 21
33.886
  0
LINE
  8
0
 10
29.972
 11
29.972
 20
33.886
 21
19.685
  0
LINE
  8
0
 10
29.972
 11
27.94
 20
19.685
 21
19.685
  0
LINE
  8
0
 10
30.48
 11
30.48
 20
2.032
 21
15.875
  0
LINE
  8
0
 10
30.48
 11
32.38
 20
15.875
 21
15.875
  0
LINE
  8
0
 10
32.38
 11
32.38
 20
15.875
 21
2.032
  0
LINE
  8
0
 10
32.38
 11
30.48
 20
2.032
 21
2.032
  0
LINE
  8
0
 10
0
 11
0
 20
-2
 21
38
  0
LINE
  8
0
 10
0
 11
50.8
 20
38
 21
38
  0
LINE
  8
0
 10
50.8
 11
50.8
 20
38
 21
-2
  0
LINE
  8
0
 10
50.8
 11
0
 20
-2
 21
-2
  0
LINE
  8
0
 10
30.48
 11
30.48
 20
19.685
 21
33.919
  0
LINE
  8
0
 10
30.48
 11
32.512
 20
33.919
 21
33.919
  0
LINE
  8
0
 10
32.512
 11
32.512
 20
33.919
 21
19.685
  0
LINE
  8
0
 10
32.512
 11
30.48
 20
19.685
 21
19.685
  0
LINE
  8
0
 10
33.02
 11
33.02
 20
2.032
 21
15.875
  0
LINE
  8
0
 10
33.02
 11
34.953
 20
15.875
 21
15.875
  0
LINE
  8
0
 10
34.953
 11
34.953
 20
15.875
 21
2.032
  0
LINE
  8
0
 10
34.953
 11
33.02
 20
2.032
 21
2.032
  0
LINE
  8
0
 10
33.02
 11
33.02
 20
19.685
 21
33.952
  0
LINE
  8
0
 10
33.02
 11
35.052
 20
33.952
 21
33.952
  0
LINE
  8
0
 10
35.052
 11
35.052
 20
33.952
 21
19.685
  0
LINE
  8
0
 10
35.052
 11
33.02
 20
19.685
 21
19.685
  0
LINE
  8
0
 10
35.56
 11
35.56
 20
2.032
 21
15.875
  0
LINE
  8
0
 10
35.56
 11
37.527
 20
15.875
 21
15.875
  0
LINE
  8
0
 10
37.527
 11
37.527
 20
15.875
 21
2.032
  0
LINE
  8
0
 10
37.527
 11
35.56
 20
2.032
 21
2.032
  0
LINE
  8
0
 10
35.56
 11
35.56
 20
19.685
 21
33.986
  0
LINE
  8
0
 10
35.56
 11
37.592
 20
33.986
 21
33.986
  0
LINE
  8
0
 10
37.592
 11
37.592
 20
33.986
 21
19.685
  0
LINE
  8
0
 10
37.592
 11
35.56
 20
19.685
 21
19.685
  0
LINE
  8
0
 10
38.1
 11
38.1
 20
2.032
 21
15.875
  0
LINE
  8
0
 10
38.1
 11
40.1
 20
15.875
 21
15.875
  0
LINE
  8
0
 10
40.1
 11
40.1
 20
15.875
 21
2.032
  0
LINE
  8
0
 10
40.1
 11
38.1
 20
2.032
 21
2.032
  0
LINE
  8
0
 10
38.1
 11
38.1
 20
19.685
 21
34.019
  0
LINE
  8
0
 10
38.1
 11
40.132
 20
34.019
 21
34.019
  0
LINE
  8
0
 10
40.132
 11
40.132
 20
34.019
 21
19.685
  0
LINE
  8
0
 10
40.132
 11
38.1
 20
19.685
 21
19.685
  0
LINE
  8
0
 10
40.64
 11
40.64
 20
2.032
 21
15.875
  0
LINE
  8
0
 10
40.64
 11
42.673
 20
15.875
 21
15.875
  0
LINE
  8
0
 10
42.673
 11
42.673
 20
15.875
 21
2.032
  0
LINE
  8
0
 10
42.673
 11
40.64
 20
2.032
 21
2.032
  0
LINE
  8
0
 10
40.64
 11
40.64
 20
19.685
 21
34.052
  0
LINE
  8
0
 10
40.64
 11
42.672
 20
34.052
 21
34.052
  0
LINE
  8
0
 10
42.672
 11
42.672
 20
34.052
 21
19.685
  0
LINE
  8
0
 10
42.672
 11
40.64
 20
19.685
 21
19.685
  0
LINE
  8
0
 10
43.18
 11
43.18
 20
2.032
 21
15.875
  0
LINE
  8
0
 10
43.18
 11
45.247
 20
15.875
 21
15.875
  0
LINE
  8
0
 10
45.247
 11
45.247
 20
15.875
 21
2.032
  0
LINE
  8
0
 10
45.247
 11
43.18
 20
2.032
 21
2.032
  0
LINE
  8
0
 10
43.18
 11
43.18
 20
19.685
 21
34.086
  0
LINE
  8
0
 10
43.18
 11
45.212
 20
34.086
 21
34.086
  0
LINE
  8
0
 10
45.212
 11
45.212
 20
34.086
 21
19.685
  0
LINE
  8
0
 10
45.212
 11
43.18
 20
19.685
 21
19.685
  0
LINE
  8
0
 10
45.72
 11
45.72
 20
2.032
 21
15.875
  0
LINE
  8
0
 10
45.72
 11
47.82
 20
15.875
 21
15.875
  0
LINE
  8
0
 10
47.82
 11
47.82
 20
15.875
 21
2.032
  0
LINE
  8
0
 10
47.82
 11
45.72
 20
2.032
 21
2.032
  0
LINE
  8
0
 10
45.72
 11
45.72
 20
19.685
 21
34.119
  0
LINE
  8
0
 10
45.72
 11
47.752
 20
34.119
 21
34.119
  0
LINE
  8
0
 10
47.752
 11
47.752
 20
34.119
 21
19.685
  0
LINE
  8
0
 10
47.752
 11
45.72
 20
19.685
 21
19.685
  0
ENDSEC
  0
SECTION
  2
OBJECTS
  0
DICTIONARY
  0
ENDSEC
  0
EOF
